<svg id="logo.svg" xmlns="http://www.w3.org/2000/svg" width="153.238" height="37.001" viewBox="0 0 153.238 37.001">
  <path id="Exclusion_1" data-name="Exclusion 1" d="M67.91,37H0V0H67.91V37ZM54.292,6.317a8.129,8.129,0,0,0-6.968,3.395c-1.633,2.254-2.461,5.5-2.461,9.636,0,3.685.764,6.581,2.272,8.608a7.542,7.542,0,0,0,6.4,3.052A8.039,8.039,0,0,0,60.45,27.6c1.621-2.265,2.443-5.513,2.443-9.653,0-3.687-.758-6.578-2.254-8.59A7.476,7.476,0,0,0,54.292,6.317Zm-25.428,19.1h9.463c.345,1.559.7,3.324,1.067,5.247h3.371a114.32,114.32,0,0,0-7.191-24H31.617a113.591,113.591,0,0,0-7.226,24h3.372c.387-2.091.758-3.857,1.1-5.246ZM5.432,6.66v24h7.26a8.573,8.573,0,0,0,7.191-3.206c1.644-2.129,2.478-5.308,2.478-9.448,0-3.709-.776-6.559-2.306-8.47A8.077,8.077,0,0,0,13.381,6.66ZM53.879,28.024a4.742,4.742,0,0,1-4.37-2.126c-.868-1.41-1.308-3.833-1.308-7.2,0-3.39.44-5.837,1.308-7.27a4.753,4.753,0,0,1,4.4-2.16,4.69,4.69,0,0,1,4.352,2.143c.856,1.423,1.291,3.84,1.291,7.185,0,3.39-.44,5.837-1.308,7.27A4.72,4.72,0,0,1,53.879,28.024Zm-41.014-.239h-4.2V9.507H12.9c2.215,0,3.807.7,4.731,2.075s1.393,3.759,1.393,7.081-.469,5.7-1.393,7.064S15.1,27.785,12.865,27.785Zm24.773-5.247h-8.12a134.362,134.362,0,0,1,4.06-13.409,134.619,134.619,0,0,1,4.06,13.408Z" transform="translate(85.329 0)" fill="#fff"/>
  <path id="Path_2" data-name="Path 2" d="M15.942-2.6,10.884-12.849H7V-2.6H3.762v-24h8.464a8.192,8.192,0,0,1,5.522,1.68,6,6,0,0,1,1.944,4.8,7.255,7.255,0,0,1-1.411,4.612,6.8,6.8,0,0,1-4.06,2.383L19.83-2.6ZM7-23.754v8.025h4.851a5.18,5.18,0,0,0,3.475-.926,3.976,3.976,0,0,0,1.032-3.086,4.016,4.016,0,0,0-1.015-3.086,5.108,5.108,0,0,0-3.458-.926Zm29.212,2.3h3.1V-2.6h-2.34L36.38-7.019q-2.959,4.767-7.329,4.767a4.975,4.975,0,0,1-3.8-1.44A5.98,5.98,0,0,1,23.89-7.945V-21.456h3.1v13.1q0,3.464,3.062,3.464a4.9,4.9,0,0,0,2.873-.96,18.035,18.035,0,0,0,3.286-3.361ZM44.844-6.607A15.555,15.555,0,0,0,51.416-5.1q4.542,0,4.542-2.5a2.106,2.106,0,0,0-1.153-1.886,9.066,9.066,0,0,0-2.787-1.029q-1.634-.343-3.269-.789a5.968,5.968,0,0,1-2.787-1.646,4.364,4.364,0,0,1-1.153-3.155,5.148,5.148,0,0,1,1.841-4.132,7.95,7.95,0,0,1,5.282-1.56,16.958,16.958,0,0,1,6.4,1.235v2.915a14.818,14.818,0,0,0-5.952-1.3q-4.439,0-4.439,2.572a2.224,2.224,0,0,0,1.153,2.006,8.788,8.788,0,0,0,2.8,1.046q1.652.343,3.3.789a6.1,6.1,0,0,1,2.8,1.612,4.245,4.245,0,0,1,1.153,3.121,4.9,4.9,0,0,1-1.91,4.029,8.738,8.738,0,0,1-5.557,1.526,15.642,15.642,0,0,1-6.847-1.406ZM79.63-18.713H71.373v9.773a3.984,3.984,0,0,0,.929,2.9,4.286,4.286,0,0,0,3.131.943,10.177,10.177,0,0,0,4.2-.892v2.949a13.671,13.671,0,0,1-4.507.789A7.016,7.016,0,0,1,70-3.95a6.14,6.14,0,0,1-1.72-4.578V-18.713h-4.37V-20.7l4.37-.754L69-25.674h2.374v4.218H79.63Z" transform="translate(-3.762 33.278)" fill="#fff"/>
</svg>
