<svg id="logo" xmlns="http://www.w3.org/2000/svg" width="153.238" height="37.001" viewBox="0 0 153.238 37.001">
  <path id="Exclusion_1" data-name="Exclusion 1" d="M67.909,37H0V0H67.909V37ZM54.291,6.317a9.052,9.052,0,0,0-4,.849,7.99,7.99,0,0,0-2.972,2.546c-1.632,2.253-2.46,5.495-2.46,9.636,0,3.687.764,6.583,2.271,8.608a7.543,7.543,0,0,0,6.4,3.052,8.889,8.889,0,0,0,3.966-.853A7.966,7.966,0,0,0,60.45,27.6c1.621-2.264,2.443-5.512,2.443-9.654,0-3.686-.758-6.576-2.254-8.591A7.476,7.476,0,0,0,54.291,6.317Zm-25.427,19.1h9.462c.348,1.573.707,3.338,1.067,5.247h3.372A114.345,114.345,0,0,0,35.573,6.66H31.617a113.581,113.581,0,0,0-7.226,24.005h3.372c.387-2.087.757-3.853,1.1-5.246ZM5.433,6.66V30.665h7.26a10.159,10.159,0,0,0,4.154-.8,7.849,7.849,0,0,0,3.036-2.4c1.644-2.127,2.477-5.306,2.477-9.447,0-3.709-.776-6.559-2.305-8.47A8.079,8.079,0,0,0,13.381,6.66ZM53.879,28.024a4.745,4.745,0,0,1-4.37-2.126c-.867-1.412-1.307-3.835-1.307-7.2,0-3.39.44-5.836,1.307-7.27a4.756,4.756,0,0,1,4.4-2.16,4.691,4.691,0,0,1,4.352,2.143c.856,1.422,1.29,3.839,1.29,7.184,0,3.39-.44,5.836-1.307,7.27A4.72,4.72,0,0,1,53.879,28.024Zm-41.014-.24h-4.2V9.506H12.9c2.214,0,3.806.7,4.731,2.075s1.393,3.759,1.393,7.082-.469,5.7-1.393,7.064S15.1,27.784,12.865,27.784Zm24.773-5.247H29.518a134.606,134.606,0,0,1,4.06-13.409,134.42,134.42,0,0,1,4.06,13.407Z" transform="translate(85.329)" fill="#c6470f"/>
  <path id="Path_2" data-name="Path 2" d="M15.942-2.6,10.884-12.849H7V-2.6H3.762v-24h8.464a8.192,8.192,0,0,1,5.522,1.68,6,6,0,0,1,1.944,4.8,7.255,7.255,0,0,1-1.411,4.612,6.8,6.8,0,0,1-4.06,2.383L19.83-2.6ZM7-23.754v8.025h4.851a5.18,5.18,0,0,0,3.475-.926,3.976,3.976,0,0,0,1.032-3.086,4.016,4.016,0,0,0-1.015-3.086,5.108,5.108,0,0,0-3.458-.926Zm29.212,2.3h3.1V-2.6h-2.34L36.38-7.019q-2.959,4.767-7.329,4.767a4.975,4.975,0,0,1-3.8-1.44A5.98,5.98,0,0,1,23.89-7.945V-21.456h3.1v13.1q0,3.464,3.062,3.464a4.9,4.9,0,0,0,2.873-.96,18.035,18.035,0,0,0,3.286-3.361ZM44.844-6.607A15.555,15.555,0,0,0,51.416-5.1q4.542,0,4.542-2.5a2.106,2.106,0,0,0-1.153-1.886,9.066,9.066,0,0,0-2.787-1.029q-1.634-.343-3.269-.789a5.968,5.968,0,0,1-2.787-1.646,4.364,4.364,0,0,1-1.153-3.155,5.148,5.148,0,0,1,1.841-4.132,7.95,7.95,0,0,1,5.282-1.56,16.958,16.958,0,0,1,6.4,1.235v2.915a14.818,14.818,0,0,0-5.952-1.3q-4.439,0-4.439,2.572a2.224,2.224,0,0,0,1.153,2.006,8.788,8.788,0,0,0,2.8,1.046q1.652.343,3.3.789a6.1,6.1,0,0,1,2.8,1.612,4.245,4.245,0,0,1,1.153,3.121,4.9,4.9,0,0,1-1.91,4.029,8.738,8.738,0,0,1-5.557,1.526,15.642,15.642,0,0,1-6.847-1.406ZM79.63-18.713H71.373v9.773a3.984,3.984,0,0,0,.929,2.9,4.286,4.286,0,0,0,3.131.943,10.177,10.177,0,0,0,4.2-.892v2.949a13.671,13.671,0,0,1-4.507.789A7.016,7.016,0,0,1,70-3.95a6.14,6.14,0,0,1-1.72-4.578V-18.713h-4.37V-20.7l4.37-.754L69-25.674h2.374v4.218H79.63Z" transform="translate(-3.762 33.278)" fill="#172020"/>
</svg>
