<svg id="sidr-logo" xmlns="http://www.w3.org/2000/svg" width="107.238" height="26.001" viewBox="0 0 107.238 26.001">
  <path id="Exclusion_1" data-name="Exclusion 1" d="M47.524,26H0V0H47.524V26ZM37.994,4.439a6.313,6.313,0,0,0-2.8.6,5.6,5.6,0,0,0-2.08,1.789A11.489,11.489,0,0,0,31.4,13.6a10.048,10.048,0,0,0,1.589,6.049,5.271,5.271,0,0,0,4.478,2.145,6.2,6.2,0,0,0,2.775-.6,5.581,5.581,0,0,0,2.065-1.8,11.609,11.609,0,0,0,1.71-6.784,10.051,10.051,0,0,0-1.577-6.037A5.224,5.224,0,0,0,37.994,4.439ZM20.2,17.862h6.622c.244,1.106.495,2.346.747,3.687h2.36A80.6,80.6,0,0,0,24.895,4.68H22.126a80.062,80.062,0,0,0-5.057,16.869h2.36c.271-1.467.53-2.707.77-3.687ZM3.8,4.68V21.549H8.883a7.084,7.084,0,0,0,2.907-.563,5.5,5.5,0,0,0,2.125-1.69c1.15-1.495,1.734-3.729,1.734-6.639A9.436,9.436,0,0,0,14.035,6.7,5.644,5.644,0,0,0,9.364,4.68Zm33.9,15.013A3.316,3.316,0,0,1,34.647,18.2a10.3,10.3,0,0,1-.915-5.061,10.512,10.512,0,0,1,.915-5.109,3.324,3.324,0,0,1,3.082-1.518,3.278,3.278,0,0,1,3.046,1.506,10.42,10.42,0,0,1,.9,5.048,10.512,10.512,0,0,1-.915,5.109A3.3,3.3,0,0,1,37.705,19.693ZM9,19.525H6.066V6.68H9.027a3.7,3.7,0,0,1,3.311,1.458c.647.967.975,2.642.975,4.976s-.328,4-.975,4.964A3.741,3.741,0,0,1,9,19.525ZM26.34,15.838H20.657A94.883,94.883,0,0,1,23.5,6.415a94.753,94.753,0,0,1,2.842,9.422Z" transform="translate(59.714)"/>
  <path id="Path_2" data-name="Path 2" d="M12.286-9.731l-3.54-7.205H6.025v7.205H3.762V-26.6H9.685a5.717,5.717,0,0,1,3.865,1.181,4.226,4.226,0,0,1,1.36,3.374,5.113,5.113,0,0,1-.987,3.241,4.758,4.758,0,0,1-2.841,1.675l3.925,7.4ZM6.025-24.6v5.639h3.4a3.614,3.614,0,0,0,2.432-.651,2.8,2.8,0,0,0,.722-2.169,2.83,2.83,0,0,0-.71-2.169,3.564,3.564,0,0,0-2.42-.651Zm20.443,1.615h2.167V-9.731H27l-.409-3.109Q24.518-9.49,21.46-9.49A3.474,3.474,0,0,1,18.8-10.5a4.213,4.213,0,0,1-.951-2.988v-9.495h2.167v9.205q0,2.434,2.143,2.434a3.418,3.418,0,0,0,2.011-.675,12.648,12.648,0,0,0,2.3-2.362Zm6.044,10.434a10.848,10.848,0,0,0,4.6,1.06q3.178,0,3.178-1.759a1.481,1.481,0,0,0-.807-1.325,6.328,6.328,0,0,0-1.95-.723q-1.144-.241-2.287-.554a4.173,4.173,0,0,1-1.95-1.157,3.074,3.074,0,0,1-.807-2.217,3.624,3.624,0,0,1,1.288-2.9,5.548,5.548,0,0,1,3.7-1.1,11.824,11.824,0,0,1,4.479.868v2.048a10.333,10.333,0,0,0-4.166-.916q-3.106,0-3.106,1.807a1.564,1.564,0,0,0,.807,1.41,6.134,6.134,0,0,0,1.962.735q1.156.241,2.312.554a4.265,4.265,0,0,1,1.962,1.133,2.99,2.99,0,0,1,.807,2.193,3.452,3.452,0,0,1-1.336,2.832A6.1,6.1,0,0,1,37.3-9.49a10.908,10.908,0,0,1-4.792-.988Zm24.344-8.507H51.077v6.868a2.807,2.807,0,0,0,.65,2.036,2.992,2.992,0,0,0,2.191.663,7.1,7.1,0,0,0,2.938-.627v2.072A9.531,9.531,0,0,1,53.7-9.49a4.9,4.9,0,0,1-3.588-1.193,4.325,4.325,0,0,1-1.2-3.217v-7.157H45.852v-1.4l3.058-.53.506-2.964h1.661v2.964h5.779Z" transform="translate(-3.762 31.293)"/>
</svg>
