<svg xmlns="http://www.w3.org/2000/svg" width="39" height="30" viewBox="0 0 39 30">
  <path id="discord" d="M59.066,34.533a.1.1,0,0,0-.051-.047A31.95,31.95,0,0,0,51.077,32a.12.12,0,0,0-.128.061,22.692,22.692,0,0,0-.988,2.049,29.425,29.425,0,0,0-8.916,0,20.81,20.81,0,0,0-1-2.049A.125.125,0,0,0,39.914,32a31.859,31.859,0,0,0-7.939,2.485.114.114,0,0,0-.052.045,33.452,33.452,0,0,0-5.762,22.4.135.135,0,0,0,.051.092,32.229,32.229,0,0,0,9.738,4.968.125.125,0,0,0,.137-.045,23.358,23.358,0,0,0,1.992-3.271.126.126,0,0,0,0-.1.124.124,0,0,0-.072-.071,21.213,21.213,0,0,1-3.042-1.463.127.127,0,0,1-.012-.209c.2-.155.409-.315.6-.478a.12.12,0,0,1,.126-.017,22.873,22.873,0,0,0,19.6,0,.119.119,0,0,1,.128.016c.2.162.4.325.606.479a.127.127,0,0,1-.011.209A19.907,19.907,0,0,1,52.966,58.5a.125.125,0,0,0-.072.072.127.127,0,0,0,.006.1,26.232,26.232,0,0,0,1.991,3.269.123.123,0,0,0,.137.047,32.121,32.121,0,0,0,9.754-4.968.126.126,0,0,0,.051-.091A33.227,33.227,0,0,0,59.066,34.533ZM39.033,52.462a4,4,0,0,1,0-7.934,4,4,0,0,1,0,7.934Zm12.959,0a4,4,0,0,1,0-7.934,4,4,0,0,1,0,7.934Z" transform="translate(-26 -32)"/>
</svg>
